<?xml version="1.0" encoding="utf-8"?>
<!-- Generator: Adobe Illustrator 23.0.6, SVG Export Plug-In . SVG Version: 6.00 Build 0)  -->
<svg version="1.1" id="Layer_1" xmlns="http://www.w3.org/2000/svg" xmlns:xlink="http://www.w3.org/1999/xlink" x="0px" y="0px"
	 viewBox="0 0 595.3 841.9" style="enable-background:new 0 0 595.3 841.9;" xml:space="preserve">
<style type="text/css">
	.st0{fill:#4C7A85;}
	.st1{fill:#FFFFFF;}
	.st2{fill:#6A6A6A;}
	.st3{fill:#B4B4B4;}
	.st4{fill:#F15C27;}
	.st5{fill:#1072BA;}
	.st6{fill:#CED7DB;}
	.st7{fill:#EBEEF0;}
	.st8{fill:#455A64;}
	.st9{fill:#546E7A;}
	.st10{fill:#25C5D9;}
	.st11{fill:#4DCFE1;}
	.st12{fill:#80DDE9;}
	.st13{fill:#AFBDC4;}
	.st14{opacity:0.15;fill:#8FA3AD;enable-background:new    ;}
	.st15{fill:#FE5722;}
	.st16{fill:#F3511E;}
	.st17{fill:#FEC928;}
	.st18{fill:#FEC007;}
</style>
<path class="st0" d="M-182.4,734.6H-93l-18.3-65.2h-71.1L-182.4,734.6z"/>
<path class="st1" d="M-112.9,531.5h-69.5v157.8H-93v-94.2L-112.9,531.5z M-274,331.1h161.1c0-107.2-44.7-225.8-51.2-243.5l-0.5-1.6
	v-0.5c-4.8-10.8-15.6-17.8-28-17.8s-23.2,7.5-28,17.8V86c0,0-0.5,1.1-0.5,1.6C-229.3,105.3-274,223.9-274,331.1z M-274,330.6h161.1
	v200.9H-274V330.6z"/>
<path class="st2" d="M-204,531.5h21v203.1h-21V531.5z"/>
<path class="st0" d="M-204,734.6h-89.4l18.3-65.2h71.1L-204,734.6L-204,734.6z"/>
<path class="st3" d="M-128,330.6v0.4h-57.7v-0.4h-15.1v0.4h-57.7v-0.4h-15.1v200.5h160.7V330.6H-128z M-128,336.7V382h-57.7v-45.3
	H-128z M-185.7,429.9v-42.3h57.7v42.1h-57.7V429.9z M-128,435.5v42.3h-57.7v-42.3H-128z M-258.4,336.7h57.7V382h-57.7V336.7z
	 M-258.4,387.6h57.7v42.1h-57.7V387.6z M-258.4,435.5h57.7v42.3h-57.7V435.5z M-258.4,525.5v-42.1h57.7v42.1H-258.4z M-185.7,525.5
	v-42.1h57.7v42.1H-185.7z"/>
<path class="st1" d="M-274,531.5h70v157.8h-89.4v-94.2L-274,531.5z"/>
<path class="st0" d="M-221.2,316.1c4.8-10.2,15.6-17.8,28-17.8s22.6,7,28,17.8l30.7-14.5c-10.2-22.1-32.3-37.2-58.2-37.2
	s-48.5,15.1-58.7,37.2L-221.2,316.1z"/>
<path class="st3" d="M-165.2,84.4c-4.8-10.8-15.6-17.8-28-17.8s-23.2,7.5-28,17.8v0.5c0,0-0.5,1.1-0.5,1.6
	c-4.3,10.2-20.5,51.7-33.4,105.6h123.4c-12.9-53.9-29.1-95.4-32.9-105.6C-164.6,86-164.6,85.5-165.2,84.4z"/>
<path class="st1" d="M-219.1,125.3h51.7v38.8h-51.7V125.3z"/>
<path class="st4" d="M-219.1,144.7h51.7v19.4h-51.7V144.7z"/>
<path class="st5" d="M-219.1,138.3h51.7v13.5h-51.7V138.3z"/>
<g>
	<g>
		<g>
			<path class="st6" d="M1007.2,133.1h-99v101.6v580.4h119.5c18.9,0,34.3-19.3,34.3-43V357.4C1062,277.4,1042.9,199.3,1007.2,133.1
				L1007.2,133.1z"/>
			<path class="st7" d="M809.3,133.1L809.3,133.1c-35.7,66.2-54.8,144.4-54.8,224.4v414.7c0,23.8,15.4,43,34.3,43h119.5V234.7V133.1
				H809.3z"/>
			<path class="st8" d="M1007.2,133.1L962.9,51c-13.1-24.3-33.9-36.4-54.7-36.4v118.5H1007.2z"/>
			<path class="st9" d="M908.2,14.6c-20.8,0-41.6,12.1-54.7,36.4l-44.3,82.1h98.9L908.2,14.6L908.2,14.6z"/>
		</g>
		<g>
			<ellipse class="st8" cx="907.9" cy="424.8" rx="94.8" ry="119"/>
			<g>
				<g>
					<path class="st10" d="M984.2,424.8c0-25.1-7.8-48-20.4-65c0,1.9,0.1,3.8,0.1,5.7c0,60.9-20.3,115.9-52.9,154.9
						C951.7,518.3,984.2,476.3,984.2,424.8z"/>
					<path class="st11" d="M963.9,365.5c0-1.9-0.1-3.8-0.1-5.7c-10.6-14.3-24.6-24.6-40.4-28.6c0.2,2.6,0.3,5.2,0.3,7.9
						c0,58.2-37.6,105.4-84,105.4c-2.1,0-4.2-0.1-6.3-0.3c7.1,43.5,37.8,76.3,74.7,76.3c1,0,2,0,3.1-0.1
						C943.5,481.3,963.9,426.4,963.9,365.5z"/>
				</g>
				<path class="st12" d="M923.6,339c0-2.7-0.1-5.3-0.3-7.9c-5-1.3-10.1-2-15.4-2c-42.1,0-76.2,42.8-76.2,95.6
					c0,6.6,0.5,13.1,1.6,19.3c2.1,0.2,4.2,0.3,6.3,0.3C886,444.5,923.6,397.3,923.6,339z"/>
			</g>
		</g>
	</g>
	<g>
		<polygon class="st13" points="1062,557.8 1062,747.3 1092.8,747.3 1092.8,578.1 		"/>
		<path class="st6" d="M1205.9,687.2c0-21.3-9.4-40.8-24.4-50.7l-88.7-58.4v169.2h87.7c14,0,25.3-14.2,25.3-31.8L1205.9,687.2
			L1205.9,687.2z"/>
	</g>
	<g>
		<polygon class="st13" points="754.5,557.8 754.5,747.3 723.7,747.3 723.7,578.1 		"/>
		<path class="st6" d="M610.6,687.2c0-21.3,9.4-40.8,24.4-50.7l88.7-58.4v169.2H636c-14,0-25.3-14.2-25.3-31.8L610.6,687.2
			L610.6,687.2z"/>
	</g>
	<path class="st14" d="M918.5,659.9l121.3,152.2c-3,1.3-5.4,2.9-20.8,2.9s-102.7,0-102.7,0L918.5,659.9z"/>
	<path class="st13" d="M908.3,856.5L908.3,856.5c-9.2,0-16.8-9.5-16.8-21.1V676.1c0-11.6,7.6-21.1,16.8-21.1l0,0
		c9.2,0,16.8,9.5,16.8,21.1v159.2C925.1,847,917.5,856.5,908.3,856.5z"/>
	<path class="st1" d="M913.8,843.9h-12c-1.1,0-2-0.9-2-2v-97.2c0-1.1,0.9-2,2-2h12c1.1,0,2,0.9,2,2v97.2
		C915.8,843,914.9,843.9,913.8,843.9z"/>
</g>
<g>
	<g>
		<polygon class="st8" points="433.5,0.9 164.6,0.9 156.6,44.2 440.8,44.2 		"/>
		<polygon class="st9" points="156.6,44.2 135.4,158.5 459.9,158.5 440.8,44.2 		"/>
	</g>
	<path class="st8" d="M479.6,194.5H115.7c-6.6,0-12.1-8.1-12.1-18l0,0c0-9.9,5.4-18,12.1-18h363.9c6.6,0,12.1,8.1,12.1,18l0,0
		C491.7,186.4,486.2,194.5,479.6,194.5z"/>
</g>
<g>
	<path class="st15" d="M128.6,194.5c-37.3,147.5-2.4,321.1,19.7,365l21-45.5c0,91,73.8,247.8,128.4,327.1V194.5H128.6z"/>
	<path class="st16" d="M466.7,194.5c37.3,147.5,2.4,321.1-19.7,365l-21-45.5c0,91-73.8,247.8-128.4,327.1V194.5H466.7z"/>
</g>
<g>
	<path class="st17" d="M-931.2,125.4c-23.7,93.6-1.5,203.9,12.5,231.7l13.3-28.9c0,57.8,46.9,157.4,81.5,207.7V125.4H-931.2z"/>
	<path class="st18" d="M-712.5,125.4c23.7,93.6,1.5,203.9-12.5,231.7l-13.3-28.9c0,57.8-46.9,157.4-81.5,207.7V125.4H-712.5z"/>
</g>
</svg>
