<?xml version="1.0" encoding="utf-8"?>
<!-- Generator: Adobe Illustrator 23.0.6, SVG Export Plug-In . SVG Version: 6.00 Build 0)  -->
<svg version="1.0" id="Layer_1" xmlns="http://www.w3.org/2000/svg" xmlns:xlink="http://www.w3.org/1999/xlink" x="0px" y="0px"
	 viewBox="0 0 1000 1000" enable-background="new 0 0 1000 1000" xml:space="preserve">
<path fill="#424242" d="M-508.3,57.8l-61,296.5v686h61V57.8L-508.3,57.8z"/>
<path fill="#E5E5E5" d="M-572.2,40.4h523.3V366h-523.3V40.4L-572.2,40.4z M-572.2,203.2h523.3V366h-523.3V203.2L-572.2,203.2z
	 M-572.2,148h523.3v113.4h-523.3V148L-572.2,148z"/>
<g>
	<g>
		<path id="XMLID_1_" fill="#FFFFFF" d="M0,222.3"/>
	</g>
	<g>
		<path fill="none" d="M0,222.3"/>
		<g>
			<path fill="#FFFFFF" d="M-79.7,47.9"/>
			<g>
				<path fill="#BEC3C4" d="M-79.7,49.4c1.9,0,1.9-3,0-3S-81.6,49.4-79.7,49.4L-79.7,49.4z"/>
			</g>
		</g>
	</g>
</g>
<path fill="#787F80" d="M360.2,239.7c26.6,65.2,38.3,130.8,38.3,130.8L248,327.9L360.2,239.7z"/>
<g>
	<g>
		<path id="XMLID_7_" fill="#FFFFFF" d="M0,222.3C107.9,157.8,165,140,165,140s62.1-73,134-6.3c26.6,24.7,47.4,62.8,63.1,101.2
			L249.9,323l150.5,42.6c-66.9,5-189.1,47.3-189.1,47.3C168.7,333.3,0,222.3,0,222.3z"/>
	</g>
	<g>
		<defs>
			<path id="SVGID_1_" d="M0,222.3C107.9,157.8,165,140,165,140s62.1-73,134-6.3c26.6,24.7,47.4,62.8,63.1,101.2L249.9,323
				l150.5,42.6c-66.9,5-189.1,47.3-189.1,47.3C168.7,333.3,0,222.3,0,222.3z"/>
		</defs>
		<clipPath id="SVGID_2_">
			<use xlink:href="#SVGID_1_"  overflow="visible"/>
		</clipPath>
		<g clip-path="url(#SVGID_2_)">
			<path fill="#FFFFFF" d="M405.2,362.6c-56.7-13.1-113.4-26.1-170.2-39.2C171.2,212.8,60.4,115.8-79.7,47.9"/>
			<g>
				<path fill="#BEC3C4" d="M405.6,361.2c-45-10.4-89.9-20.7-134.9-31.1c-5.6-1.3-11.3-2.6-16.9-3.9c-2.7-0.6-5.3-1.2-8-1.8
					c-2.9-0.7-6.2-1-8.9-2.1c-1.1-0.4-1.3-0.9-1.9-2c-0.5-0.8-0.9-1.6-1.4-2.4c-1.1-1.9-2.3-3.8-3.4-5.7c-2.1-3.5-4.3-6.9-6.5-10.4
					c-9.1-14.3-19-28.1-29.3-41.5c-21.7-28-45.8-54-71.7-78c-27.3-25.3-56.5-48.4-87.1-69.5c-32.2-22.1-66-42-100.9-59.6
					c-4.5-2.3-9-4.5-13.6-6.7c-1.7-0.8-3.3,1.7-1.5,2.6c35.5,17.2,69.9,36.7,102.8,58.4c31.4,20.8,61.4,43.7,89.4,68.9
					c26.5,23.8,51.2,49.5,73.5,77.2c10.7,13.3,20.9,27.2,30.4,41.4c4.7,7,9.2,14.1,13.5,21.3c1,1.7,2,3.4,3,5.1
					c0.5,0.8,0.9,2,1.6,2.7c0.7,0.8,1.7,0.9,2.8,1.1c5.6,1.3,11.3,2.6,16.9,3.9c44.8,10.3,89.6,20.6,134.4,31
					c5.6,1.3,11.3,2.6,16.9,3.9C406.7,364.5,407.5,361.6,405.6,361.2L405.6,361.2z"/>
			</g>
		</g>
	</g>
	<g>
		<defs>
			<path id="SVGID_3_" d="M0,222.3C107.9,157.8,165,140,165,140s62.1-73,134-6.3c26.6,24.7,47.4,62.8,63.1,101.2L249.9,323
				l150.5,42.6c-66.9,5-189.1,47.3-189.1,47.3C168.7,333.3,0,222.3,0,222.3z"/>
		</defs>
		<clipPath id="SVGID_4_">
			<use xlink:href="#SVGID_3_"  overflow="visible"/>
		</clipPath>
		<g clip-path="url(#SVGID_4_)">
			<path fill="#FFFFFF" d="M255,319.1c-48-69.8-74.6-147.7-140.9-209.7c-7.8-7.3-20.3-15.2-32.2-11.5"/>
			<g>
				<path fill="#BEC3C4" d="M256.3,318.4c-10.7-15.5-20.4-31.7-29.8-48c-9.3-16.3-18.3-32.7-27.6-49s-18.9-32.4-29.4-48
					c-10.8-16-22.5-31.4-35.4-45.7c-6.6-7.3-13.4-14.6-20.9-21c-6.9-5.9-15.6-11.1-24.9-11.1c-2.3,0-4.6,0.3-6.9,1
					c-1.8,0.6-1.1,3.4,0.8,2.9c9.2-2.7,18.5,1.5,25.8,6.9c3.7,2.8,7.1,6.1,10.4,9.4c3.6,3.5,7.1,7.1,10.5,10.7
					c13,13.9,24.7,29,35.5,44.7c10.5,15.3,20.1,31.2,29.4,47.4c9.2,16,18,32.1,27.1,48.1c9.2,16.1,18.6,32.1,28.9,47.5
					c1.3,1.9,2.6,3.9,3.9,5.8C254.8,321.4,257.4,319.9,256.3,318.4L256.3,318.4z"/>
			</g>
		</g>
	</g>
	<g>
		<defs>
			<path id="SVGID_5_" d="M0,222.3C107.9,157.8,165,140,165,140s62.1-73,134-6.3c26.6,24.7,47.4,62.8,63.1,101.2L249.9,323
				l150.5,42.6c-66.9,5-189.1,47.3-189.1,47.3C168.7,333.3,0,222.3,0,222.3z"/>
		</defs>
		<clipPath id="SVGID_6_">
			<use xlink:href="#SVGID_5_"  overflow="visible"/>
		</clipPath>
		<g clip-path="url(#SVGID_6_)">
			<path fill="#FFFFFF" d="M150,180.9c-4.8-2.1-9.5-4.2-14.3-6.3c17.6,26.4,40.1,51.3,66.6,73.7c-28.5-36.1-58.8-71.6-90.8-106.3
				c13.1,24.5,33.4,46.7,53.6,68.7c-17.5-20.5-35.1-41-52.6-61.6c12,22.6,30.1,43.6,53.1,61.6c1.5-2.6,0.4-5.9-2.8-7.7"/>
			<g>
				<path fill="#BEC3C4" d="M150.8,179.6c-4.8-2.1-9.5-4.2-14.3-6.3c-1.2-0.5-3,0.7-2.1,2.1c14.3,21.4,31.1,41,49.8,58.7
					c5.5,5.3,11.3,10.4,17.1,15.3c1.5,1.3,3.3-0.6,2.1-2.1c-11.2-14.1-22.5-28.1-34.1-41.9c-11.7-13.9-23.6-27.7-35.7-41.3
					c-6.9-7.7-13.9-15.4-20.9-23.1c-1.2-1.3-3.1,0.4-2.4,1.8c10.7,20,25.5,37.6,40.6,54.4c4.4,4.9,8.8,9.7,13.2,14.6
					c1.3,1.4,3.4-0.7,2.1-2.1c-13.6-16-27.3-31.9-40.9-47.9c-3.9-4.6-7.8-9.1-11.7-13.7c-1.1-1.3-3.1,0.4-2.4,1.8
					c9.9,18.6,23.4,35.2,38.8,49.5c4.7,4.3,9.5,8.5,14.5,12.4c0.7,0.6,1.8,0.6,2.4-0.3c2-3.7,0.1-7.7-3.3-9.7
					c-1.7-1-3.2,1.6-1.5,2.6c1.9,1.2,3.4,3.4,2.2,5.6c0.8-0.1,1.6-0.2,2.4-0.3c-16.9-13.3-32.1-28.8-44.1-46.7
					c-3.2-4.7-6.1-9.6-8.8-14.6c-0.8,0.6-1.6,1.2-2.4,1.8c13.6,16,27.3,31.9,40.9,47.9c3.9,4.6,7.8,9.1,11.7,13.7
					c0.7-0.7,1.4-1.4,2.1-2.1c-15.4-16.8-31-33.6-43.7-52.6c-3.5-5.1-6.7-10.4-9.6-15.8c-0.8,0.6-1.6,1.2-2.4,1.8
					c12.4,13.4,24.6,27.1,36.6,40.9c11.9,13.7,23.6,27.5,35,41.6c6.4,7.9,12.8,15.8,19.1,23.8c0.7-0.7,1.4-1.4,2.1-2.1
					c-19.9-16.9-38.3-35.7-54.2-56.4c-4.2-5.5-8.3-11.2-12.2-17c-0.7,0.7-1.4,1.4-2.1,2.1c4.8,2.1,9.5,4.2,14.3,6.3
					C151,182.9,152.6,180.4,150.8,179.6L150.8,179.6z"/>
			</g>
		</g>
	</g>
	<g>
		<defs>
			<path id="SVGID_7_" d="M0,222.3C107.9,157.8,165,140,165,140s62.1-73,134-6.3c26.6,24.7,47.4,62.8,63.1,101.2L249.9,323
				l150.5,42.6c-66.9,5-189.1,47.3-189.1,47.3C168.7,333.3,0,222.3,0,222.3z"/>
		</defs>
		<clipPath id="SVGID_8_">
			<use xlink:href="#SVGID_7_"  overflow="visible"/>
		</clipPath>
		<g clip-path="url(#SVGID_8_)">
			<path fill="#FFFFFF" d="M143.7,153.1c6.2,12.3,12.4,24.6,18.7,36.9c-2.4-12.1-8.7-23.9-18.2-34.2c2.6,13.3,7.1,26.4,13.3,39.1
				c0.1-23.2-32.9-43.7-65.8-40.8c59.8,18.1,103.8,59.8,111.1,105.2c-17.3-9.8-28.9-24.4-31.8-39.9c17.5,16.1,33.4,33,47.8,50.5
				c-4.6-1.3-9.2-2.7-13.7-4c5.6,11.9,13.2,23.3,22.8,33.9c0.1-7.1-2.3-14.2-7-20.5c5.3,9.9,10.6,19.8,15.9,29.7"/>
			<g>
				<path fill="#BEC3C4" d="M142.4,153.8c6.2,12.3,12.4,24.6,18.7,36.9c0.8,1.6,3.1,0.4,2.7-1.2c-2.6-13.2-9.5-25-18.6-34.8
					c-1.1-1.2-2.8,0.1-2.5,1.5c2.7,13.7,7.3,26.9,13.5,39.5c0.7,1.4,2.8,0.7,2.8-0.8c0-10.1-5.9-19.1-13.3-25.6
					c-9-7.9-20.4-13-32.1-15.4c-7.2-1.5-14.6-2-22-1.4c-1.6,0.1-2.1,2.4-0.4,2.9c21.9,6.7,42.9,16.8,61.2,30.6
					c15.9,12,29.8,27,39.1,44.7c4.7,9,8.1,18.7,9.7,28.8c0.7-0.6,1.5-1.1,2.2-1.7c-11.8-6.7-22.4-16.5-28-29.1
					c-1.4-3.2-2.4-6.5-3.1-9.9c-0.8,0.5-1.7,1-2.5,1.5c13.3,12.3,26.1,25.3,38,39c3.3,3.8,6.6,7.7,9.8,11.6c0.5-0.8,1-1.7,1.5-2.5
					c-4.6-1.3-9.2-2.7-13.7-4c-1.4-0.4-2.2,1.1-1.7,2.2c5.9,12.5,13.8,24,23,34.2c0.9,1,2.6,0.2,2.6-1.1c0.1-7.7-2.7-15.1-7.2-21.3
					c-1.1-1.5-3.5-0.2-2.6,1.5c5.3,9.9,10.6,19.8,15.9,29.7c0.9,1.7,3.5,0.2,2.6-1.5c-5.3-9.9-10.6-19.8-15.9-29.7
					c-0.9,0.5-1.7,1-2.6,1.5c4.2,5.8,6.9,12.5,6.8,19.8c0.9-0.4,1.7-0.7,2.6-1.1c-9.1-10.1-16.8-21.3-22.6-33.6
					c-0.6,0.7-1.1,1.5-1.7,2.2c4.6,1.3,9.2,2.7,13.7,4c1.5,0.4,2.4-1.4,1.5-2.5c-11.4-13.9-23.6-27.2-36.4-39.7
					c-3.7-3.7-7.5-7.3-11.4-10.8c-1.1-1.1-2.8,0-2.5,1.5c2.5,13.5,11.2,25.1,21.7,33.5c3.4,2.7,7,5.1,10.8,7.3
					c1.2,0.7,2.4-0.4,2.2-1.7c-3.1-18.9-12.3-36.3-24.5-50.9c-13.8-16.6-31.4-29.9-50.4-40c-11.9-6.3-24.4-11.4-37.2-15.3
					c-0.1,1-0.3,2-0.4,2.9c12.2-1,24.7,1,35.9,5.9c9.4,4.1,18.6,10.4,24.2,19.3c2.6,4.3,4.3,9.1,4.3,14.1c0.9-0.3,1.9-0.5,2.8-0.8
					c-6-12.3-10.5-25.3-13.2-38.7c-0.8,0.5-1.7,1-2.5,1.5c8.7,9.4,15.3,20.8,17.8,33.5c0.9-0.4,1.8-0.8,2.7-1.2
					c-6.2-12.3-12.4-24.6-18.7-36.9C144.1,150.6,141.5,152.1,142.4,153.8L142.4,153.8z"/>
			</g>
		</g>
	</g>
	<g>
		<defs>
			<path id="SVGID_9_" d="M0,222.3C107.9,157.8,165,140,165,140s62.1-73,134-6.3c26.6,24.7,47.4,62.8,63.1,101.2L249.9,323
				l150.5,42.6c-66.9,5-189.1,47.3-189.1,47.3C168.7,333.3,0,222.3,0,222.3z"/>
		</defs>
		<clipPath id="SVGID_10_">
			<use xlink:href="#SVGID_9_"  overflow="visible"/>
		</clipPath>
		<g clip-path="url(#SVGID_10_)">
			<path fill="#FFFFFF" d="M243.8,307.4c1.2,3,0.1,6.5-2.8,8.9c-3.1,0-6.2-1.4-7.3-3.5"/>
			<g>
				<path fill="#BEC3C4" d="M242.4,307.8c0.1,0.4,0.3,0.7,0.3,1.1c0,0.1,0.1,0.6,0.1,0.3c0,0.2,0,0.4,0,0.6s0,0.4,0,0.6
					c0,0.1-0.1,0.6,0,0.3c-0.1,0.4-0.1,0.7-0.3,1.1c-0.1,0.2-0.1,0.4-0.2,0.5c0.1-0.3-0.1,0.3-0.1,0.3c-0.2,0.4-0.4,0.7-0.6,1
					c-0.1,0.1-0.1,0.2-0.2,0.2c0.1-0.1,0.1-0.1-0.1,0.1c-0.1,0.2-0.3,0.3-0.4,0.5c-0.3,0.3-0.6,0.6-1,0.9c0.4-0.1,0.7-0.3,1.1-0.4
					c-0.4,0-0.8,0-1.2-0.1c-0.2,0-0.4-0.1-0.7-0.1c-0.3-0.1-0.7-0.2-1-0.3c-0.2-0.1-0.3-0.1-0.5-0.2c0.2,0.1-0.2-0.1-0.2-0.1
					c-0.3-0.1-0.5-0.3-0.8-0.4c-0.1-0.1-0.3-0.2-0.4-0.3c-0.1,0-0.1-0.1-0.2-0.1c0.1,0.1,0.1,0.1,0,0c-0.2-0.2-0.4-0.4-0.6-0.6
					c-0.1-0.1-0.2-0.3-0.1-0.1c-0.1-0.1-0.2-0.3-0.3-0.4c-0.4-0.7-1.4-0.9-2.1-0.5c-0.7,0.4-0.9,1.3-0.5,2.1
					c1.5,2.6,4.5,3.8,7.4,4.1c0.4,0,0.7,0.1,1.1,0.1c0.7,0,1.1-0.3,1.5-0.7c0.6-0.5,1.1-1.1,1.6-1.8c0.8-1.1,1.4-2.4,1.6-3.7
					c0.3-1.6,0.2-3.2-0.4-4.7c-0.3-0.8-1-1.3-1.8-1C242.7,306.2,242.1,307.1,242.4,307.8L242.4,307.8z"/>
			</g>
		</g>
	</g>
	<g>
		<defs>
			<path id="SVGID_11_" d="M0,222.3C107.9,157.8,165,140,165,140s62.1-73,134-6.3c26.6,24.7,47.4,62.8,63.1,101.2L249.9,323
				l150.5,42.6c-66.9,5-189.1,47.3-189.1,47.3C168.7,333.3,0,222.3,0,222.3z"/>
		</defs>
		<clipPath id="SVGID_12_">
			<use xlink:href="#SVGID_11_"  overflow="visible"/>
		</clipPath>
		<g clip-path="url(#SVGID_12_)">
			<path fill="#FFFFFF" d="M155.4,156.8c-14.1-3.8-30-4.2-44.4-1.3"/>
			<g>
				<path fill="#BEC3C4" d="M155.8,155.4c-14.7-3.9-30.3-4.3-45.2-1.3c-1.9,0.4-1.1,3.3,0.8,2.9c14.4-2.9,29.5-2.5,43.6,1.3
					C156.8,158.8,157.6,155.9,155.8,155.4L155.8,155.4z"/>
			</g>
		</g>
	</g>
</g>
<path fill="#E6ECED" d="M662.8,13.9c0,0-227.6-43.4-536.9,104.1c-2.8,1.3-3.6,4-1.9,6c19.5,22.8,124.7,148.7,124.2,203.9
	c0,0,277.8-75.1,514.2-53.8L662.8,13.9z"/>
<path fill="#E6ECED" d="M677,8c-0.2,0-0.3,0-0.5,0c-10.2,0.5-17.4,7.5-15,14.6L990.2,1008h23.8L694.4,17.2
	C692.6,11.5,685.2,7.6,677,8z"/>
<path fill="#D71C00" d="M492.4,185.4c-5.4-1.5-12.7-5.1-22.1-11c-6.2-3.9-8.1-6.9-7.8-9.1c6.1,0.9,9.9,1.4,10.1,1.4
	c3.1,6.6,17.5,16.9,67.9,29.7c0,0-26.9-37.4-51.8-40.3c0.2-0.3,0.5-0.5,0.7-0.8c0,0-0.8-1.8-2.3-4.9c3.4-0.7,8.5-0.2,16,2.6
	c3.6,1.4,6.8,2.6,9.6,3.9c6.1,2.6,10.3,4.9,12.8,6.9c1.9,1.5,4.8,1.2,4.5-0.7c-0.6-3.4-3.1-8.4-10.4-15.3
	c-12-11.2-22.5-14.5-27-15.5c-0.8-0.2-1.6,0.4-1.2,0.9c1.7,2.2,5,6.9,3.6,9.2c-0.1,0.2-0.2,0.3-0.3,0.4c-1.9,1.9-7.4,1.6-11,1.2
	c-1.3-2.1-2.7-4.5-4.4-6.9c-2.3-3.5-5.1-7.2-8.2-11c-0.8-1-1.7-2-2.6-3l-0.2,0.1c0.1-0.1,0.1-0.2,0.2-0.3
	c-6.7-7.5-15.1-15-25.3-20.9c-16.6-9.7-54.7-11.3-54.7-11.3c-3.7,0-7.2,0-10.4,0.2c-0.2-0.1-15.5,1.5-15.5,1.5s-2.6,7.1-1.7,16.6
	c0,0,4.6-1.5-0.1,0.1c1.1,10.3,6.2,23.3,23.3,33c9.7,5.5,21.4,9.8,33.1,13.3h-0.1c1.7,0.5,3.3,1,5,1.4c5.2,1.4,10.4,2.7,15.3,3.8
	c1.2,0.3,2.3,0.5,3.5,0.8c3.3,0.7,6.5,1.3,9.5,1.9c0.8,0.9,3.1,3.7,3.2,6.1c0,0.9-0.3,1.8-1.2,2.4c-2.8,1.8-11.6,0.9-15.7,0.3
	c-0.9-0.1-1.5,0.5-1.1,1c2.5,2.5,10.2,8.1,30.5,12.7c1.7,0.4,3.3,0.7,4.8,1c9.8,1.9,16.7,2.1,21.5,1.7
	C495.4,188.1,495.3,186.2,492.4,185.4z M449.6,140.1c-0.2,0.1-0.3,0.2-0.5,0.3l0,0l0,0C449.3,140.3,449.4,140.2,449.6,140.1z
	 M377.5,101C377.5,100.9,377.5,100.9,377.5,101C377.5,100.9,377.4,101,377.5,101C377.4,101,377.4,101,377.5,101z"/>
<g>
	<path fill="#E41313" d="M537.9,129.5c9.6,3.3,19,7.3,27.7,12.7c4.3,2.7,8.4,5.8,12.1,9.4c3.6,3.6,6.7,7.9,8.5,12.8
		c1.8,4.9,2,10.4,0.4,15.3c-1.5,5-4.4,9.4-7.9,13.2s-7.6,7-11.8,9.8c-4.3,2.8-8.8,5.3-13.4,7.5c-4.6,2.2-9.4,4.1-14.2,5.9
		c-2.4,0.8-4.8,1.7-7.3,2.4l-3.7,1.1l-3.7,1c-9.8,2.7-19.9,4.8-29.9,6.4c-20.2,3.2-40.6,4.4-61,4.1c-20.4-0.4-40.8-2.4-60.8-6.5
		c-5-1-10-2.2-14.9-3.5c-4.9-1.4-9.8-2.8-14.7-4.5c-2.4-0.8-4.8-1.8-7.2-2.7c-2.4-1-4.7-1.9-7.1-3c-4.7-2.1-9.2-4.5-13.5-7.3
		s-8.5-5.9-12.1-9.5s-6.8-7.9-8.7-12.7c-1.8-4.9-2.2-10.3-0.8-15.4c1.4-5,4.3-9.5,7.8-13.3c1.7-1.9,3.6-3.6,5.6-5.3
		c2-1.6,4-3.1,6.2-4.5c4.3-2.8,8.8-5.2,13.4-7.4c9.2-4.3,18.9-7.6,28.7-10.3c-9.8,2.8-19.4,6.3-28.5,10.7c-4.6,2.2-9,4.7-13.2,7.6
		c-2.1,1.4-4.1,2.9-6,4.6c-1.9,1.6-3.8,3.4-5.4,5.3c-3.3,3.7-6.1,8.1-7.4,12.9c-1.3,4.8-0.9,10,0.9,14.6c1.9,4.6,4.9,8.7,8.5,12.2
		s7.7,6.5,11.9,9.2c4.3,2.7,8.8,5,13.4,7.1c2.3,1.1,4.6,2,7,3c2.4,0.9,4.7,1.8,7.1,2.6c4.8,1.7,9.7,3.1,14.5,4.4
		c4.9,1.3,9.8,2.4,14.8,3.4c19.9,4,40.2,5.9,60.5,6.3c20.3,0.4,40.6-0.8,60.7-3.9c10-1.6,20-3.6,29.8-6.3c4.9-1.3,9.7-2.9,14.5-4.5
		c4.8-1.7,9.5-3.6,14.1-5.7c4.6-2.2,9-4.5,13.3-7.3c4.2-2.7,8.2-5.9,11.7-9.5c3.4-3.6,6.3-7.9,7.8-12.7c1.6-4.7,1.4-10-0.2-14.7
		c-1.7-4.7-4.6-8.9-8.1-12.6c-3.5-3.6-7.5-6.8-11.8-9.5C556.9,137.2,547.5,133,537.9,129.5z"/>
</g>
<path fill="#D71C00" d="M761.3,274.5l-0.9,0.3c-7.8,2.5-16.1-1.8-18.6-9.5L665.3,28.6c-2.5-7.8,1.8-16.1,9.5-18.6l0.9-0.3
	c7.8-2.5,16.1,1.8,18.6,9.5l76.5,236.6C773.3,263.6,769,272,761.3,274.5z"/>
</svg>
