<?xml version="1.0" encoding="utf-8"?>
<!-- Generator: Adobe Illustrator 23.0.6, SVG Export Plug-In . SVG Version: 6.00 Build 0)  -->
<svg version="1.0" id="Layer_1" xmlns="http://www.w3.org/2000/svg" xmlns:xlink="http://www.w3.org/1999/xlink" x="0px" y="0px"
	 viewBox="0 0 595.28 841.89" style="enable-background:new 0 0 595.28 841.89;" xml:space="preserve">
<style type="text/css">
	.st0{fill:#4C7A85;}
	.st1{fill:#FFFFFF;}
	.st2{fill:#6A6A6A;}
	.st3{fill:#B4B4B4;}
	.st4{fill:#F15C27;}
	.st5{fill:#1072BA;}
	.st6{fill:#CED7DB;}
	.st7{fill:#EBEEF0;}
	.st8{fill:#455A64;}
	.st9{fill:#546E7A;}
	.st10{fill:#25C5D9;}
	.st11{fill:#4DCFE1;}
	.st12{fill:#80DDE9;}
	.st13{fill:#AFBDC4;}
	.st14{opacity:0.15;fill:#8FA3AD;}
	.st15{fill:#FE5722;}
	.st16{fill:#F3511E;}
	.st17{fill:#FEC928;}
	.st18{fill:#FEC007;}
</style>
<path class="st0" d="M-182.36,734.62h89.4l-18.3-65.2h-71.1L-182.36,734.62z"/>
<path class="st1" d="M-112.86,531.52h-69.5v157.8h89.4v-94.2L-112.86,531.52z M-273.96,331.12h161.1c0-107.2-44.7-225.8-51.2-243.5
	l-0.5-1.6v-0.5c-4.8-10.8-15.6-17.8-28-17.8s-23.2,7.5-28,17.8v0.5c0,0-0.5,1.1-0.5,1.6C-229.26,105.32-273.96,223.92-273.96,331.12
	z M-273.96,330.62h161.1v200.9h-161.1V330.62z"/>
<path class="st2" d="M-203.96,531.52h21v203.1h-21V531.52z"/>
<path class="st0" d="M-203.96,734.62h-89.4l18.3-65.2h71.1V734.62z"/>
<path class="st3" d="M-127.96,330.62v0.4h-57.7v-0.4h-15.1v0.4h-57.7v-0.4h-15.1v200.5h160.7v-200.5H-127.96z M-127.96,336.72v45.3
	h-57.7v-45.3H-127.96z M-185.66,429.92v-42.3h57.7v42.1h-57.7V429.92z M-127.96,435.52v42.3h-57.7v-42.3H-127.96z M-258.36,336.72
	h57.7v45.3h-57.7V336.72z M-258.36,387.62h57.7v42.1h-57.7V387.62z M-258.36,435.52h57.7v42.3h-57.7V435.52z M-258.36,525.52v-42.1
	h57.7v42.1H-258.36z M-185.66,525.52v-42.1h57.7v42.1H-185.66z"/>
<path class="st1" d="M-273.96,531.52h70v157.8h-89.4v-94.2L-273.96,531.52z"/>
<path class="st0" d="M-221.16,316.12c4.8-10.2,15.6-17.8,28-17.8c12.4,0,22.6,7,28,17.8l30.7-14.5c-10.2-22.1-32.3-37.2-58.2-37.2
	c-25.9,0-48.5,15.1-58.7,37.2L-221.16,316.12z"/>
<path class="st3" d="M-165.16,84.42c-4.8-10.8-15.6-17.8-28-17.8s-23.2,7.5-28,17.8v0.5c0,0-0.5,1.1-0.5,1.6
	c-4.3,10.2-20.5,51.7-33.4,105.6h123.4c-12.9-53.9-29.1-95.4-32.9-105.6C-164.56,86.02-164.56,85.52-165.16,84.42z"/>
<path class="st1" d="M-219.06,125.32h51.7v38.8h-51.7L-219.06,125.32z"/>
<path class="st4" d="M-219.06,144.72h51.7v19.4h-51.7L-219.06,144.72z"/>
<path class="st5" d="M-219.06,138.32h51.7v13.5h-51.7L-219.06,138.32z"/>
<g>
	<g>
		<g>
			<path class="st6" d="M396.58,117.43h-98.95v101.64v580.42H417.1c18.94,0,34.3-19.27,34.3-43.03V341.77
				c0-79.97-19.09-158.1-54.81-224.33L396.58,117.43z"/>
			<path class="st7" d="M198.71,117.43L198.71,117.43c-35.73,66.24-54.83,144.39-54.83,224.37v414.66
				c0,23.77,15.36,43.03,34.3,43.03h119.46V219.07V117.43H198.71z"/>
			<path class="st8" d="M396.58,117.43l-44.27-82.08c-13.09-24.27-33.89-36.41-54.68-36.4v118.48H396.58z"/>
			<path class="st9" d="M297.64-1.05c-20.78,0.01-41.56,12.14-54.65,36.39l-44.28,82.09h98.93V-1.05z"/>
		</g>
		<g>
			<ellipse class="st8" cx="297.33" cy="409.17" rx="94.82" ry="118.96"/>
			<g>
				<g>
					<path class="st10" d="M373.55,409.17c0-25.13-7.77-47.95-20.41-65.02c0.04,1.89,0.11,3.77,0.11,5.67
						c0,60.93-20.31,115.87-52.86,154.87C341.07,502.67,373.55,460.69,373.55,409.17z"/>
					<path class="st11" d="M353.25,349.82c0-1.9-0.08-3.78-0.11-5.67c-10.59-14.29-24.57-24.57-40.39-28.64
						c0.15,2.61,0.26,5.24,0.26,7.9c0,58.23-37.62,105.43-84.03,105.43c-2.12,0-4.22-0.13-6.3-0.33
						c7.13,43.54,37.84,76.28,74.65,76.28c1.03,0,2.05-0.05,3.06-0.1C332.95,465.69,353.25,410.75,353.25,349.82z"/>
				</g>
				<path class="st12" d="M313.01,323.41c0-2.66-0.11-5.29-0.26-7.9c-4.98-1.28-10.14-1.96-15.42-1.96
					c-42.09,0-76.22,42.81-76.22,95.62c0,6.63,0.54,13.09,1.56,19.34c2.08,0.19,4.18,0.33,6.3,0.33
					C275.38,428.84,313.01,381.64,313.01,323.41z"/>
			</g>
		</g>
	</g>
	<g>
		<polygon class="st13" points="451.4,542.18 451.4,731.69 482.19,731.69 482.19,562.46 		"/>
		<path class="st6" d="M595.28,671.55c0-21.29-9.41-40.82-24.43-50.71l-88.65-58.39v169.24h87.74c14,0,25.35-14.24,25.35-31.8
			V671.55z"/>
	</g>
	<g>
		<polygon class="st13" points="143.87,542.18 143.87,731.69 113.08,731.69 113.08,562.46 		"/>
		<path class="st6" d="M0,671.55c0-21.29,9.41-40.82,24.43-50.71l88.65-58.39v169.24H25.35c-14,0-25.35-14.24-25.35-31.8V671.55z"/>
	</g>
	<path class="st14" d="M307.95,644.3l121.31,152.19c-2.96,1.28-5.43,2.92-20.78,2.92c-15.35,0-102.73,0-102.73,0L307.95,644.3z"/>
	<path class="st13" d="M297.68,840.84L297.68,840.84c-9.25,0-16.81-9.49-16.81-21.1V660.51c0-11.6,7.57-21.09,16.81-21.09l0,0
		c9.25,0,16.81,9.49,16.81,21.09v159.23C314.5,831.35,306.93,840.84,297.68,840.84z"/>
	<path class="st1" d="M303.22,828.26h-12.01c-1.1,0-1.99-0.9-1.99-1.99v-97.16c0-1.1,0.9-1.99,1.99-1.99h12.01
		c1.1,0,1.99,0.9,1.99,1.99v97.16C305.21,827.37,304.31,828.26,303.22,828.26z"/>
</g>
<g>
	<g>
		<g>
			<g>
				<polygon class="st8" points="433.19,799.41 164.34,799.41 156.29,842.73 440.44,842.73 				"/>
				<polygon class="st9" points="156.29,842.73 135.06,957.1 459.6,957.1 440.44,842.73 				"/>
			</g>
			<path class="st8" d="M479.3,993.09H115.36c-6.63,0-12.06-8.1-12.06-18l0,0c0-9.9,5.43-18,12.06-18H479.3
				c6.63,0,12.06,8.1,12.06,18l0,0C491.36,984.99,485.94,993.09,479.3,993.09z"/>
		</g>
		<g>
			<path class="st15" d="M128.24,993.09c-37.29,147.46-2.39,321.12,19.7,364.95l20.96-45.52c0,91.04,73.82,247.84,128.42,327.08
				V993.09H128.24z"/>
			<path class="st16" d="M466.42,993.09c37.29,147.46,2.39,321.12-19.7,364.95l-20.96-45.52c0,91.04-73.82,247.84-128.42,327.08
				V993.09H466.42z"/>
		</g>
		<g>
			<path class="st17" d="M189.98,993.09c-23.67,93.62-1.52,203.88,12.51,231.71l13.31-28.9c0,57.8,46.87,157.35,81.54,207.67V993.09
				H189.98z"/>
			<path class="st18" d="M404.69,993.09c23.67,93.62,1.52,203.88-12.51,231.71l-13.31-28.9c0,57.8-46.87,157.35-81.54,207.67V993.09
				H404.69z"/>
		</g>
	</g>
</g>
</svg>
