<?xml version="1.0" encoding="utf-8"?>
<!-- Generator: Adobe Illustrator 23.0.6, SVG Export Plug-In . SVG Version: 6.00 Build 0)  -->
<svg version="1.1" id="Layer_1" xmlns="http://www.w3.org/2000/svg" xmlns:xlink="http://www.w3.org/1999/xlink" x="0px" y="0px"
	 viewBox="0 0 595.3 656.4" style="enable-background:new 0 0 595.3 656.4;" xml:space="preserve">
<style type="text/css">
	.st0{fill:#4C7A85;}
	.st1{fill:#FFFFFF;}
	.st2{fill:#6A6A6A;}
	.st3{fill:#B4B4B4;}
	.st4{fill:#F15C27;}
	.st5{fill:#1072BA;}
	.st6{fill:#CED7DB;}
	.st7{fill:#EBEEF0;}
	.st8{fill:#455A64;}
	.st9{fill:#546E7A;}
	.st10{fill:#25C5D9;}
	.st11{fill:#4DCFE1;}
	.st12{fill:#80DDE9;}
	.st13{fill:#AFBDC4;}
	.st14{opacity:0.15;fill:#8FA3AD;enable-background:new    ;}
	.st15{fill:#FE5722;}
	.st16{fill:#F3511E;}
	.st17{fill:#FEC928;}
	.st18{fill:#FEC007;}
</style>
<path class="st0" d="M-182.4,549.1H-93l-18.3-65.2h-71.1L-182.4,549.1z"/>
<path class="st1" d="M-112.9,346h-69.5v157.8H-93v-94.2L-112.9,346z M-274,145.6h161.1c0-107.2-44.7-225.8-51.2-243.5l-0.5-1.6v-0.5
	c-4.8-10.8-15.6-17.8-28-17.8s-23.2,7.5-28,17.8v0.5c0,0-0.5,1.1-0.5,1.6C-229.3-80.2-274,38.4-274,145.6z M-274,145.1h161.1V346
	H-274V145.1z"/>
<path class="st2" d="M-204,346h21v203.1h-21V346z"/>
<path class="st0" d="M-204,549.1h-89.4l18.3-65.2h71.1L-204,549.1L-204,549.1z"/>
<path class="st3" d="M-128,145.1v0.4h-57.7v-0.4h-15.1v0.4h-57.7v-0.4h-15.1v200.5h160.7V145.1H-128z M-128,151.2v45.3h-57.7v-45.3
	H-128z M-185.7,244.4v-42.3h57.7v42.1h-57.7V244.4z M-128,250v42.3h-57.7V250H-128z M-258.4,151.2h57.7v45.3h-57.7V151.2z
	 M-258.4,202.1h57.7v42.1h-57.7V202.1z M-258.4,250h57.7v42.3h-57.7V250z M-258.4,340v-42.1h57.7V340H-258.4z M-185.7,340v-42.1
	h57.7V340H-185.7z"/>
<path class="st1" d="M-274,346h70v157.8h-89.4v-94.2L-274,346z"/>
<path class="st0" d="M-221.2,130.6c4.8-10.2,15.6-17.8,28-17.8s22.6,7,28,17.8l30.7-14.5c-10.2-22.1-32.3-37.2-58.2-37.2
	s-48.5,15.1-58.7,37.2L-221.2,130.6z"/>
<path class="st3" d="M-165.2-101.1c-4.8-10.8-15.6-17.8-28-17.8s-23.2,7.5-28,17.8v0.5c0,0-0.5,1.1-0.5,1.6
	c-4.3,10.2-20.5,51.7-33.4,105.6h123.4c-12.9-53.9-29.1-95.4-32.9-105.6C-164.6-99.5-164.6-100-165.2-101.1z"/>
<path class="st1" d="M-219.1-60.2h51.7v38.8h-51.7V-60.2z"/>
<path class="st4" d="M-219.1-40.8h51.7v19.4h-51.7V-40.8z"/>
<path class="st5" d="M-219.1-47.2h51.7v13.5h-51.7V-47.2z"/>
<g>
	<g>
		<g>
			<path class="st6" d="M-271.4,214.1h-98.9v101.6v580.4h119.5c18.9,0,34.3-19.3,34.3-43V438.4
				C-216.6,358.4-235.7,280.3-271.4,214.1L-271.4,214.1z"/>
			<path class="st7" d="M-469.3,214.1L-469.3,214.1c-35.7,66.2-54.8,144.4-54.8,224.4v414.7c0,23.8,15.4,43,34.3,43h119.5V315.7
				V214.1H-469.3z"/>
			<path class="st8" d="M-271.4,214.1l-44.3-82.1c-13.1-24.3-33.9-36.4-54.7-36.4v118.5H-271.4z"/>
			<path class="st9" d="M-370.4,95.6c-20.8,0-41.6,12.1-54.6,36.4l-44.3,82.1h98.9V95.6z"/>
		</g>
		<g>
			<ellipse class="st8" cx="-370.7" cy="505.8" rx="94.8" ry="119"/>
			<g>
				<g>
					<path class="st10" d="M-294.5,505.8c0-25.1-7.8-48-20.4-65c0,1.9,0.1,3.8,0.1,5.7c0,60.9-20.3,115.9-52.9,154.9
						C-326.9,599.3-294.5,557.3-294.5,505.8z"/>
					<path class="st11" d="M-314.8,446.5c0-1.9-0.1-3.8-0.1-5.7c-10.6-14.3-24.6-24.6-40.4-28.6c0.1,2.6,0.3,5.2,0.3,7.9
						c0,58.2-37.6,105.4-84,105.4c-2.1,0-4.2-0.1-6.3-0.3c7.1,43.5,37.8,76.3,74.7,76.3c1,0,2,0,3.1-0.1
						C-335,562.3-314.8,507.4-314.8,446.5z"/>
				</g>
				<path class="st12" d="M-355,420.1c0-2.7-0.1-5.3-0.3-7.9c-5-1.3-10.1-2-15.4-2c-42.1,0-76.2,42.8-76.2,95.6
					c0,6.6,0.5,13.1,1.6,19.3c2.1,0.2,4.2,0.3,6.3,0.3C-392.6,525.5-355,478.3-355,420.1z"/>
			</g>
		</g>
	</g>
	<g>
		<polygon class="st13" points="-216.6,638.8 -216.6,828.3 -185.8,828.3 -185.8,659.1 		"/>
		<path class="st6" d="M-72.7,768.2c0-21.3-9.4-40.8-24.4-50.7l-88.6-58.4v169.2h87.7c14,0,25.3-14.2,25.3-31.8L-72.7,768.2
			L-72.7,768.2z"/>
	</g>
	<g>
		<polygon class="st13" points="-524.1,638.8 -524.1,828.3 -554.9,828.3 -554.9,659.1 		"/>
		<path class="st6" d="M-668,768.2c0-21.3,9.4-40.8,24.4-50.7l88.7-58.4v169.2h-87.7c-14,0-25.3-14.2-25.3-31.8V768.2z"/>
	</g>
	<path class="st14" d="M-360,740.9l121.3,152.2c-3,1.3-5.4,2.9-20.8,2.9s-102.7,0-102.7,0L-360,740.9z"/>
	<path class="st13" d="M-370.3,937.5L-370.3,937.5c-9.2,0-16.8-9.5-16.8-21.1V757.2c0-11.6,7.6-21.1,16.8-21.1l0,0
		c9.2,0,16.8,9.5,16.8,21.1v159.2C-353.5,928-361.1,937.5-370.3,937.5z"/>
	<path class="st1" d="M-364.8,924.9h-12c-1.1,0-2-0.9-2-2v-97.2c0-1.1,0.9-2,2-2h12c1.1,0,2,0.9,2,2v97.2
		C-362.8,924-363.7,924.9-364.8,924.9z"/>
</g>
<g>
	<g>
		<polygon class="st8" points="-47,-432.1 -302.7,-432.1 -310.4,-375.9 -40.1,-375.9 		"/>
		<polygon class="st9" points="-310.4,-375.9 -330.5,-227.5 -21.8,-227.5 -40.1,-375.9 		"/>
	</g>
	<path class="st8" d="M-3.1-180.8h-346.2c-6.3,0-11.5-10.5-11.5-23.4l0,0c0-12.8,5.2-23.4,11.5-23.4H-3.1c6.3,0,11.5,10.5,11.5,23.4
		l0,0C8.4-191.3,3.2-180.8-3.1-180.8z"/>
</g>
<g>
	<path class="st15" d="M136.8,0c-35.5,149.7-2.3,326,18.7,370.5l19.9-46.2c0,92.4,70.2,251.6,122.2,332.1V0H136.8z"/>
	<path class="st16" d="M458.5,0c35.5,149.7,2.3,326-18.7,370.5l-19.9-46.2c0,92.4-70.2,251.6-122.2,332.1V0H458.5z"/>
</g>
<g>
	<path class="st17" d="M637.5,310.4C615,431.9,636.1,575,649.4,611.1l12.7-37.5c0,75,44.6,204.2,77.6,269.5V310.4H637.5z"/>
	<path class="st18" d="M735.8-101.6c22.5,121.5,1.4,264.6-11.9,300.7l-12.7-37.5c0,75-44.6,204.2-77.6,269.5v-532.7H735.8z"/>
</g>
</svg>
