<?xml version="1.0" encoding="utf-8"?>
<!-- Generator: Adobe Illustrator 23.0.6, SVG Export Plug-In . SVG Version: 6.00 Build 0)  -->
<svg version="1.1" id="Layer_1" xmlns="http://www.w3.org/2000/svg" xmlns:xlink="http://www.w3.org/1999/xlink" x="0px" y="0px"
	 viewBox="0 0 235.5 344.3" style="enable-background:new 0 0 235.5 344.3;" xml:space="preserve">
<style type="text/css">
	.st0{fill:#4C7A85;}
	.st1{fill:#FFFFFF;}
	.st2{fill:#6A6A6A;}
	.st3{fill:#B4B4B4;}
	.st4{fill:#F15C27;}
	.st5{fill:#1072BA;}
	.st6{fill:#CED7DB;}
	.st7{fill:#EBEEF0;}
	.st8{fill:#455A64;}
	.st9{fill:#546E7A;}
	.st10{fill:#25C5D9;}
	.st11{fill:#4DCFE1;}
	.st12{fill:#80DDE9;}
	.st13{fill:#AFBDC4;}
	.st14{opacity:0.15;fill:#8FA3AD;enable-background:new    ;}
	.st15{fill:#FEC928;}
	.st16{fill:#FEC007;}
</style>
<path class="st0" d="M-362.2,404h89.4l-18.3-65.2h-71.1L-362.2,404z"/>
<path class="st1" d="M-292.7,200.9h-69.5v157.8h89.4v-94.2L-292.7,200.9z M-453.8,0.5h161.1c0-107.2-44.7-225.8-51.2-243.5l-0.5-1.6
	v-0.5c-4.8-10.8-15.6-17.8-28-17.8s-23.2,7.5-28,17.8v0.5c0,0-0.5,1.1-0.5,1.6C-409.1-225.3-453.8-106.7-453.8,0.5z M-453.8,0h161.1
	v200.9h-161.1V0z"/>
<path class="st2" d="M-383.8,200.9h21V404h-21V200.9z"/>
<path class="st0" d="M-383.8,404h-89.4l18.3-65.2h71.1V404L-383.8,404z"/>
<path class="st3" d="M-307.8,0v0.4h-57.7V0h-15.1v0.4h-57.7V0h-15.1v200.5h160.7V0H-307.8z M-307.8,6.1v45.3h-57.7V6.1H-307.8z
	 M-365.5,99.3V57h57.7v42.1h-57.7V99.3z M-307.8,104.9v42.3h-57.7v-42.3H-307.8z M-438.2,6.1h57.7v45.3h-57.7V6.1z M-438.2,57h57.7
	v42.1h-57.7V57z M-438.2,104.9h57.7v42.3h-57.7V104.9z M-438.2,194.9v-42.1h57.7v42.1H-438.2z M-365.5,194.9v-42.1h57.7v42.1H-365.5
	z"/>
<path class="st1" d="M-453.8,200.9h70v157.8h-89.4v-94.2L-453.8,200.9z"/>
<path class="st0" d="M-401-14.5c4.8-10.2,15.6-17.8,28-17.8s22.6,7,28,17.8l30.7-14.5c-10.2-22.1-32.3-37.2-58.2-37.2
	S-421-51.1-431.2-29L-401-14.5z"/>
<path class="st3" d="M-342.6-244.6c-4.2-11-14.6-18.6-27-19.3c-12.4-0.7-23.6,6.2-28.9,16.2l0,0.5c0,0-0.6,1.1-0.6,1.6
	c-4.9,10-23.3,50.5-39.1,103.6l123.2,6.7c-9.9-54.5-23.9-96.8-27.1-107.2C-342.1-243-342.1-243.5-342.6-244.6z"/>
<path class="st1" d="M-398.9-205.3h51.7v38.8h-51.7V-205.3z"/>
<path class="st4" d="M-398.9-185.9h51.7v19.4h-51.7V-185.9z"/>
<path class="st5" d="M-398.9-192.3h51.7v13.5h-51.7V-192.3z"/>
<g>
	<g>
		<g>
			<path class="st6" d="M827.3-197.6h-99v101.6v580.4h119.5c18.9,0,34.3-19.3,34.3-43V26.8C882.1-53.2,863-131.3,827.3-197.6
				L827.3-197.6z"/>
			<path class="st7" d="M629.4-197.6L629.4-197.6c-35.7,66.2-54.8,144.4-54.8,224.4v414.7c0,23.8,15.4,43,34.3,43h119.5V-95.9
				v-101.6H629.4z"/>
			<path class="st8" d="M827.3-197.6l-44.3-82.1C770-303.9,749.2-316,728.4-316v118.5H827.3z"/>
			<path class="st9" d="M728.4-316c-20.8,0-41.6,12.1-54.7,36.4l-44.3,82.1h98.9L728.4-316L728.4-316z"/>
		</g>
		<g>
			<ellipse class="st8" cx="728.1" cy="94.2" rx="94.8" ry="119"/>
			<g>
				<g>
					<path class="st10" d="M804.3,94.2c0-25.1-7.8-48-20.4-65c0,1.9,0.1,3.8,0.1,5.7c0,60.9-20.3,115.9-52.9,154.9
						C771.8,187.7,804.3,145.7,804.3,94.2z"/>
					<path class="st11" d="M784,34.8c0-1.9-0.1-3.8-0.1-5.7c-10.6-14.3-24.6-24.6-40.4-28.6c0.2,2.6,0.3,5.2,0.3,7.9
						c0,58.2-37.6,105.4-84,105.4c-2.1,0-4.2-0.1-6.3-0.3c7.1,43.5,37.8,76.3,74.7,76.3c1,0,2,0,3.1-0.1
						C763.7,150.7,784,95.8,784,34.8z"/>
				</g>
				<path class="st12" d="M743.7,8.4c0-2.7-0.1-5.3-0.3-7.9c-5-1.3-10.1-2-15.4-2c-42.1,0-76.2,42.8-76.2,95.6
					c0,6.6,0.5,13.1,1.6,19.3c2.1,0.2,4.2,0.3,6.3,0.3C706.1,113.9,743.7,66.6,743.7,8.4z"/>
			</g>
		</g>
	</g>
	<g>
		<polygon class="st13" points="882.1,227.2 882.1,416.7 912.9,416.7 912.9,247.5 		"/>
		<path class="st6" d="M1026,356.6c0-21.3-9.4-40.8-24.4-50.7l-88.7-58.4v169.2h87.7c14,0,25.3-14.2,25.3-31.8L1026,356.6
			L1026,356.6z"/>
	</g>
	<g>
		<polygon class="st13" points="574.6,227.2 574.6,416.7 543.8,416.7 543.8,247.5 		"/>
		<path class="st6" d="M430.7,356.6c0-21.3,9.4-40.8,24.4-50.7l88.7-58.4v169.2h-87.7c-14,0-25.3-14.2-25.3-31.8L430.7,356.6
			L430.7,356.6z"/>
	</g>
	<path class="st14" d="M738.7,329.3L860,481.5c-3,1.3-5.4,2.9-20.8,2.9s-102.7,0-102.7,0L738.7,329.3z"/>
	<path class="st13" d="M728.4,525.8L728.4,525.8c-9.2,0-16.8-9.5-16.8-21.1V345.5c0-11.6,7.6-21.1,16.8-21.1l0,0
		c9.2,0,16.8,9.5,16.8,21.1v159.2C745.2,516.3,737.7,525.8,728.4,525.8z"/>
	<path class="st1" d="M734,513.3h-12c-1.1,0-2-0.9-2-2v-97.2c0-1.1,0.9-2,2-2h12c1.1,0,2,0.9,2,2v97.2
		C735.9,512.4,735.1,513.3,734,513.3z"/>
</g>
<g>
	<path class="st15" d="M14.7,0.5c-22.7,78.4-1.5,170.8,12,194.1l12.8-24.2c0,48.4,45,131.8,78.3,173.9V0.5H14.7z"/>
	<path class="st16" d="M220.8,0.5c22.7,78.4,1.5,170.8-12,194.1L196,170.4c0,48.4-45,131.8-78.3,173.9V0.5H220.8z"/>
</g>
</svg>
